<?xml version="1.0" encoding="UTF-8" standalone="no"?>
<!-- Created with Inkscape (http://www.inkscape.org/) -->

<svg
   width="1280"
   height="720"
   viewBox="0 0 1280 720"
   version="1.1"
   id="svg1"
   inkscape:export-filename="player.png"
   inkscape:export-xdpi="96"
   inkscape:export-ydpi="96"
   inkscape:version="1.4.2 (ebf0e940, 2025-05-08)"
   sodipodi:docname="original_assets.svg"
   xmlns:inkscape="http://www.inkscape.org/namespaces/inkscape"
   xmlns:sodipodi="http://sodipodi.sourceforge.net/DTD/sodipodi-0.dtd"
   xmlns:xlink="http://www.w3.org/1999/xlink"
   xmlns="http://www.w3.org/2000/svg"
   xmlns:svg="http://www.w3.org/2000/svg">
  <sodipodi:namedview
     id="namedview1"
     pagecolor="#ffffff"
     bordercolor="#000000"
     borderopacity="0.25"
     inkscape:showpageshadow="2"
     inkscape:pageopacity="0.0"
     inkscape:pagecheckerboard="0"
     inkscape:deskcolor="#d1d1d1"
     inkscape:document-units="px"
     showguides="true"
     inkscape:zoom="0.46041666"
     inkscape:cx="1090.3168"
     inkscape:cy="561.44797"
     inkscape:window-width="1792"
     inkscape:window-height="1062"
     inkscape:window-x="0"
     inkscape:window-y="30"
     inkscape:window-maximized="1"
     inkscape:current-layer="layer1">
    <sodipodi:guide
       position="777.42599,644.46195"
       orientation="1,0"
       id="guide1"
       inkscape:locked="false" />
    <sodipodi:guide
       position="841.42508,660.5353"
       orientation="0,-1"
       id="guide2"
       inkscape:locked="false" />
    <sodipodi:guide
       position="830.53101,620.34399"
       orientation="0,-1"
       id="guide3"
       inkscape:locked="false" />
    <sodipodi:guide
       position="817.66359,736.92609"
       orientation="1,0"
       id="guide4"
       inkscape:locked="false" />
  </sodipodi:namedview>
  <defs
     id="defs1">
    <pattern
       inkscape:collect="always"
       xlink:href="#Polkadots-med"
       preserveAspectRatio="xMidYMid"
       id="pattern20"
       patternTransform="matrix(10,0,0,10,-45.689942,28.796204)" />
    <pattern
       patternUnits="userSpaceOnUse"
       width="10"
       height="10"
       patternTransform="translate(0,0) scale(10,10)"
       preserveAspectRatio="xMidYMid"
       id="Polkadots-med"
       inkscape:stockid="Polka dots, medium"
       inkscape:label="Polka dots medium"
       inkscape:collect="always"
       inkscape:isstock="true">
      <circle
         style="stroke:none"
         cx="2.567"
         cy="0.810"
         r="0.15"
         id="circle406" />
      <circle
         style="stroke:none"
         cx="3.048"
         cy="2.33"
         r="0.15"
         id="circle408" />
      <circle
         style="stroke:none"
         cx="4.418"
         cy="2.415"
         r="0.15"
         id="circle410" />
      <circle
         style="stroke:none"
         cx="1.844"
         cy="3.029"
         r="0.15"
         id="circle412" />
      <circle
         style="stroke:none"
         cx="6.08"
         cy="1.363"
         r="0.15"
         id="circle414" />
      <circle
         style="stroke:none"
         cx="5.819"
         cy="4.413"
         r="0.15"
         id="circle416" />
      <circle
         style="stroke:none"
         cx="4.305"
         cy="4.048"
         r="0.15"
         id="circle418" />
      <circle
         style="stroke:none"
         cx="5.541"
         cy="3.045"
         r="0.15"
         id="circle420" />
      <circle
         style="stroke:none"
         cx="4.785"
         cy="5.527"
         r="0.15"
         id="circle422" />
      <circle
         style="stroke:none"
         cx="2.667"
         cy="5.184"
         r="0.15"
         id="circle424" />
      <circle
         style="stroke:none"
         cx="7.965"
         cy="1.448"
         r="0.15"
         id="circle426" />
      <circle
         style="stroke:none"
         cx="7.047"
         cy="5.049"
         r="0.15"
         id="circle428" />
      <circle
         style="stroke:none"
         cx="4.340"
         cy="0.895"
         r="0.15"
         id="circle430" />
      <circle
         style="stroke:none"
         cx="7.125"
         cy="0.340"
         r="0.15"
         id="circle432" />
      <circle
         style="stroke:none"
         cx="9.550"
         cy="1.049"
         r="0.15"
         id="circle434" />
      <circle
         style="stroke:none"
         cx="7.006"
         cy="2.689"
         r="0.15"
         id="circle436" />
      <circle
         style="stroke:none"
         cx="8.909"
         cy="2.689"
         r="0.15"
         id="circle438" />
      <circle
         style="stroke:none"
         cx="9.315"
         cy="4.407"
         r="0.15"
         id="circle440" />
      <circle
         style="stroke:none"
         cx="7.820"
         cy="3.870"
         r="0.15"
         id="circle442" />
      <circle
         style="stroke:none"
         cx="8.270"
         cy="5.948"
         r="0.15"
         id="circle444" />
      <circle
         style="stroke:none"
         cx="7.973"
         cy="7.428"
         r="0.15"
         id="circle446" />
      <circle
         style="stroke:none"
         cx="9.342"
         cy="8.072"
         r="0.15"
         id="circle448" />
      <circle
         style="stroke:none"
         cx="8.206"
         cy="9.315"
         r="0.15"
         id="circle450" />
      <circle
         style="stroke:none"
         cx="9.682"
         cy="9.475"
         r="0.15"
         id="circle452" />
      <circle
         style="stroke:none"
         cx="9.688"
         cy="6.186"
         r="0.15"
         id="circle454" />
      <circle
         style="stroke:none"
         cx="3.379"
         cy="6.296"
         r="0.15"
         id="circle456" />
      <circle
         style="stroke:none"
         cx="2.871"
         cy="8.204"
         r="0.15"
         id="circle458" />
      <circle
         style="stroke:none"
         cx="4.59"
         cy="8.719"
         r="0.15"
         id="circle460" />
      <circle
         style="stroke:none"
         cx="3.181"
         cy="9.671"
         r="0.15"
         id="circle462" />
      <circle
         style="stroke:none"
         cx="5.734"
         cy="7.315"
         r="0.15"
         id="circle464" />
      <circle
         style="stroke:none"
         cx="6.707"
         cy="6.513"
         r="0.15"
         id="circle466" />
      <circle
         style="stroke:none"
         cx="5.730"
         cy="9.670"
         r="0.15"
         id="circle468" />
      <circle
         style="stroke:none"
         cx="6.535"
         cy="8.373"
         r="0.15"
         id="circle470" />
      <circle
         style="stroke:none"
         cx="4.37"
         cy="7.154"
         r="0.15"
         id="circle472" />
      <circle
         style="stroke:none"
         cx="0.622"
         cy="7.25"
         r="0.15"
         id="circle474" />
      <circle
         style="stroke:none"
         cx="0.831"
         cy="5.679"
         r="0.15"
         id="circle476" />
      <circle
         style="stroke:none"
         cx="1.257"
         cy="8.519"
         r="0.15"
         id="circle478" />
      <circle
         style="stroke:none"
         cx="1.989"
         cy="6.877"
         r="0.15"
         id="circle480" />
      <circle
         style="stroke:none"
         cx="0.374"
         cy="3.181"
         r="0.15"
         id="circle482" />
      <circle
         style="stroke:none"
         cx="1.166"
         cy="1.664"
         r="0.15"
         id="circle484" />
      <circle
         style="stroke:none"
         cx="1.151"
         cy="0.093"
         r="0.15"
         id="circle486" />
      <circle
         style="stroke:none"
         cx="1.151"
         cy="10.093"
         r="0.15"
         id="circle488" />
      <circle
         style="stroke:none"
         cx="1.302"
         cy="4.451"
         r="0.15"
         id="circle490" />
      <circle
         style="stroke:none"
         cx="3.047"
         cy="3.763"
         r="0.15"
         id="circle492" />
    </pattern>
    <clipPath
       clipPathUnits="userSpaceOnUse"
       id="clipPath14">
      <path
         id="path14"
         style="stroke-width:0.1;stroke-linecap:square;paint-order:markers fill stroke;stop-color:#000000"
         d="m -880.82767,-187.29769 h 1640.84 v 73.28155 h -1640.84 z" />
    </clipPath>
    <clipPath
       clipPathUnits="userSpaceOnUse"
       id="clipPath52">
      <path
         id="path8"
         style="stroke-width:0.1;stroke-linecap:square;paint-order:markers fill stroke;stop-color:#000000"
         d="m -880.82767,-187.29769 h 1640.84 v 73.28155 h -1640.84 z" />
    </clipPath>
  </defs>
  <g
     inkscape:label="Layer 1"
     inkscape:groupmode="layer"
     id="layer1">
    <path
       id="path49"
       style="fill:#808080;fill-opacity:1;stroke:none;stroke-width:10"
       inkscape:transform-center-x="-3.3168558"
       inkscape:transform-center-y="-17.500462"
       d="m 259.03296,262.93836 -4.2832,4.35156 -2.41016,-4.09962 -3.00976,5.31251 -3.39063,-3.33595 -1.53125,5.91017 -4.13867,-2.34375 0.0508,6.10546 -4.60351,-1.19336 1.62695,5.88282 -4.7539,0.0391 3.09375,5.26368 -4.58203,1.26757 4.35156,4.28321 -4.09962,2.41015 5.31251,3.00975 -3.33594,3.39063 5.91016,1.53125 -2.34375,4.13867 6.10546,-0.0508 -1.19335,4.60351 5.88281,-1.62694 0.0391,4.7539 5.26367,-3.0957 1.26758,4.58398 4.28125,-4.34961 2.41211,4.09766 3.00976,-5.3125 3.38867,3.33595 1.53321,-5.91017 4.13671,2.34375 -0.0488,-6.10547 4.60352,1.19337 -1.62695,-5.88282 4.7539,-0.0391 -3.09375,-5.26368 4.58202,-1.26758 -4.35155,-4.28124 4.09961,-2.41211 -5.31251,-3.00977 3.33595,-3.38867 -5.91017,-1.5332 2.34376,-4.13672 -6.10547,0.0488 1.19336,-4.60351 -5.88282,1.62695 -0.0391,-4.75391 -5.26367,3.09375 z m -0.66015,11.56445 3.5586,0.92187 3.20116,1.8125 2.62305,2.58008 1.86328,3.16992 0.98047,3.54298 0.0293,3.67968 -0.92188,3.55859 -1.81249,3.19922 -2.58204,2.62695 -3.16406,1.86134 -3.54687,0.98047 -3.6836,0.0293 -3.55273,-0.91992 -3.20313,-1.81446 -2.6211,-2.57812 -1.86523,-3.16797 -0.98047,-3.54492 -0.0293,-3.68555 0.91993,-3.55469 1.8164,-3.20312 2.57618,-2.61914 3.16796,-1.86524 3.54493,-0.98046 z"
       inkscape:export-filename="saw.png"
       inkscape:export-xdpi="96"
       inkscape:export-ydpi="96" />
    <path
       id="path52"
       style="fill:#808080;fill-opacity:1;stroke:none;stroke-width:10"
       inkscape:transform-center-x="-3.3168558"
       inkscape:transform-center-y="-17.500462"
       d="m 274.00699,335.31282 -4.2832,4.35156 -2.41016,-4.09962 -3.00976,5.31251 -3.39063,-3.33595 -1.53125,5.91017 -4.13867,-2.34375 0.0508,6.10546 -4.60351,-1.19336 1.62695,5.88282 -4.7539,0.0391 3.09375,5.26368 -4.58203,1.26757 4.35156,4.28321 -4.09962,2.41015 5.31251,3.00975 -3.33594,3.39063 5.91016,1.53125 -2.34375,4.13867 6.10546,-0.0508 -1.19335,4.60351 5.88281,-1.62694 0.0391,4.7539 5.26367,-3.0957 1.26758,4.58398 4.28125,-4.34961 2.41211,4.09766 3.00976,-5.3125 3.38867,3.33595 1.53321,-5.91017 4.13671,2.34375 -0.0488,-6.10547 4.60352,1.19337 -1.62695,-5.88282 4.7539,-0.0391 -3.09375,-5.26368 4.58202,-1.26758 -4.35155,-4.28124 4.09965,-2.41211 -5.31255,-3.00977 3.33595,-3.38867 -5.91017,-1.5332 2.34376,-4.13672 -6.10547,0.0488 1.19336,-4.60351 -5.88282,1.62695 -0.0391,-4.75391 -5.26367,3.09375 z m -0.66015,11.56445 3.5586,0.92187 3.20116,1.8125 2.62305,2.58008 1.86328,3.16992 0.98047,3.54298 0.0293,3.67968 -0.92188,3.55859 -1.81249,3.19922 -2.58204,2.62695 -3.16406,1.86134 -3.54687,0.98047 -3.6836,0.0293 -3.55273,-0.91992 -3.20313,-1.81446 -2.6211,-2.57812 -1.86523,-3.16797 -0.98047,-3.54492 -0.0293,-3.68555 0.91993,-3.55469 1.8164,-3.20312 2.57618,-2.61914 3.16796,-1.86524 3.54493,-0.98046 z"
       inkscape:export-filename="saw.png"
       inkscape:export-xdpi="96"
       inkscape:export-ydpi="96" />
    <circle
       style="fill:#808080;stroke:#333333;stroke-width:4;stroke-dasharray:none"
       id="circle49"
       cx="256.64722"
       cy="288.48425"
       r="15.661551" />
    <g
       id="g37"
       inkscape:transform-center-y="-49.91342"
       transform="translate(-703.35278,-251.51574)">
      <circle
         style="fill:#ffffff;fill-opacity:1;stroke:#000000;stroke-width:1;stroke-dasharray:none"
         id="path37"
         cx="1081.7773"
         cy="594.59998"
         r="10.927174" />
      <path
         id="rect29"
         style="opacity:1;vector-effect:none;fill:none;fill-rule:evenodd;stroke:#000000;stop-color:#000000;stop-opacity:1"
         d="m 1063.9237,507.58109 h 35.7073 v 59.88175 h -35.3883 z"
         sodipodi:nodetypes="ccccc" />
      <rect
         style="font-variation-settings:normal;opacity:1;vector-effect:none;fill:none;fill-opacity:1;fill-rule:evenodd;stroke:#000000;stroke-width:1;stroke-linecap:butt;stroke-linejoin:miter;stroke-miterlimit:4;stroke-dasharray:none;stroke-dashoffset:0;stroke-opacity:1;-inkscape-stroke:none;stop-color:#000000;stop-opacity:1"
         id="rect30"
         width="25.724609"
         height="22.968365"
         x="1068.915"
         y="484.61273" />
      <rect
         style="font-variation-settings:normal;opacity:1;vector-effect:none;fill:#ffffff;fill-opacity:1;fill-rule:evenodd;stroke:#000000;stroke-width:1;stroke-linecap:butt;stroke-linejoin:miter;stroke-miterlimit:4;stroke-dasharray:none;stroke-dashoffset:0;stroke-opacity:1;-inkscape-stroke:none;stop-color:#000000;stop-opacity:1"
         id="rect31"
         width="9.9827299"
         height="32.635696"
         x="1094.6396"
         y="514.35645" />
      <path
         sodipodi:type="star"
         style="fill:none;fill-opacity:1;stroke:#000000;stroke-width:1;stroke-dasharray:none"
         id="path33"
         inkscape:flatsided="false"
         sodipodi:sides="3"
         sodipodi:cx="1030.9041"
         sodipodi:cy="608.17584"
         sodipodi:r1="21.501165"
         sodipodi:r2="10.750583"
         sodipodi:arg1="1.5707963"
         sodipodi:arg2="2.6179939"
         inkscape:rounded="0"
         inkscape:randomized="0"
         d="m 1030.9041,629.67701 -9.3103,-16.12588 -9.3103,-16.12587 18.6206,0 18.6205,0 -9.3103,16.12587 z"
         inkscape:transform-center-y="5.379994"
         transform="matrix(0.95024882,0,0,1.0008747,102.32148,-30.484987)"
         inkscape:transform-center-x="-3.9033403e-06" />
      <rect
         style="font-variation-settings:normal;opacity:1;vector-effect:none;fill:none;fill-opacity:1;fill-rule:evenodd;stroke:#000000;stroke-width:0.8583;stroke-linecap:butt;stroke-linejoin:miter;stroke-miterlimit:4;stroke-dasharray:none;stroke-dashoffset:0;stroke-opacity:1;-inkscape-stroke:none;stop-color:#000000;stop-opacity:1"
         id="rect34"
         width="13.004004"
         height="8.3679581"
         x="1081.7065"
         y="499.284" />
      <circle
         style="fill:#ffffff;fill-opacity:1;stroke:#000000;stroke-width:1;stroke-dasharray:none"
         id="path34"
         cx="1068.915"
         cy="496.0181"
         r="7.0125651" />
      <circle
         style="fill:#ffffff;fill-opacity:1;stroke:#000000;stroke-width:1.20478;stroke-dasharray:none"
         id="path35"
         cx="1081.9369"
         cy="594.46204"
         r="5.2807927" />
      <circle
         style="fill:#ffffff;fill-opacity:1;stroke:#000000;stroke-width:1;stroke-dasharray:none"
         id="path36"
         cx="1068.915"
         cy="496.09692"
         r="2.9864254" />
    </g>
    <circle
       style="fill:#ffffff;fill-opacity:1;stroke:#000000;stroke-width:2;stroke-linejoin:round;stroke-dasharray:none"
       id="circle37"
       cx="448.68726"
       cy="343.08423"
       r="10.927174"
       inkscape:export-filename="player.png"
       inkscape:export-xdpi="96"
       inkscape:export-ydpi="96" />
    <path
       id="path38"
       style="fill:#ffffff;fill-rule:evenodd;stroke:#000000;stroke-width:2;stroke-linecap:round;stroke-linejoin:round;stroke-dasharray:none;stop-color:#000000"
       d="m 435.82492,298.29975 h 25.7246 l 4.9914,17.64735 h -35.3883 z"
       sodipodi:nodetypes="ccccc" />
    <rect
       style="font-variation-settings:normal;fill:#ffffff;fill-opacity:1;fill-rule:evenodd;stroke:#000000;stroke-width:2;stroke-linecap:butt;stroke-linejoin:round;stroke-miterlimit:4;stroke-dasharray:none;stroke-dashoffset:0;stroke-opacity:1;stop-color:#000000"
       id="rect38"
       width="25.724609"
       height="22.968365"
       x="435.82495"
       y="275.33136" />
    <rect
       style="font-variation-settings:normal;fill:#ffffff;fill-opacity:1;fill-rule:evenodd;stroke:#000000;stroke-width:2;stroke-linecap:butt;stroke-linejoin:round;stroke-miterlimit:4;stroke-dasharray:none;stroke-dashoffset:0;stroke-opacity:1;stop-color:#000000"
       id="rect39"
       width="3.9651053"
       height="14.206126"
       x="271.36627"
       y="-454.63855"
       transform="rotate(90)"
       ry="2.1727116"
       rx="1.9825526" />
    <path
       sodipodi:type="star"
       style="fill:#ffffff;fill-opacity:1;stroke:#000000;stroke-width:2.05079;stroke-linejoin:round;stroke-dasharray:none"
       id="path39"
       inkscape:flatsided="false"
       sodipodi:sides="3"
       sodipodi:cx="1030.9041"
       sodipodi:cy="608.17584"
       sodipodi:r1="21.501165"
       sodipodi:r2="10.750583"
       sodipodi:arg1="1.5707963"
       sodipodi:arg2="2.6179939"
       inkscape:rounded="0"
       inkscape:randomized="0"
       d="m 1030.9041,629.67701 -9.3103,-16.12588 -9.3103,-16.12587 18.6206,0 18.6205,0 -9.3103,16.12587 z"
       inkscape:transform-center-y="5.379994"
       transform="matrix(0.95024882,0,0,1.0008747,-530.76856,-282.00073)"
       inkscape:transform-center-x="-3.9033403e-06" />
    <circle
       style="fill:#ffffff;fill-opacity:1;stroke:#000000;stroke-width:2;stroke-linejoin:round;stroke-dasharray:none"
       id="circle40"
       cx="435.82495"
       cy="286.73669"
       r="7.0125651" />
    <circle
       style="fill:#ffffff;fill-opacity:1;stroke:#000000;stroke-width:2;stroke-linejoin:round;stroke-dasharray:none"
       id="circle41"
       cx="448.8468"
       cy="342.94629"
       r="5.2807927" />
    <circle
       style="fill:#ffffff;fill-opacity:1;stroke:#000000;stroke-width:2;stroke-linejoin:round;stroke-dasharray:none"
       id="circle42"
       cx="435.82495"
       cy="286.81555"
       r="2.9864254" />
    <rect
       style="font-variation-settings:normal;fill:#ffffff;fill-opacity:1;fill-rule:evenodd;stroke:#000000;stroke-width:2;stroke-linecap:butt;stroke-linejoin:miter;stroke-miterlimit:4;stroke-dasharray:none;stroke-dashoffset:0;stroke-opacity:1;stop-color:#000000"
       id="rect43"
       width="21.117216"
       height="9.7907095"
       x="446.07996"
       y="279.33136"
       ry="4.8953547"
       rx="4.8953547" />
    <circle
       style="fill:#ffffff;fill-opacity:1;stroke:#000000;stroke-width:2;stroke-linecap:round;stroke-linejoin:round;stroke-dasharray:none"
       id="circle43"
       cx="461.54956"
       cy="284.76373"
       r="2.0518086" />
    <circle
       style="fill:#ffffff;fill-opacity:1;stroke:#000000;stroke-width:2;stroke-linecap:round;stroke-linejoin:round;stroke-dasharray:none"
       id="path43"
       cx="453.29468"
       cy="284.26373"
       r="2.0518086" />
    <path
       id="rect40"
       style="font-variation-settings:normal;fill:#ffffff;fill-opacity:1;fill-rule:evenodd;stroke:#000000;stroke-width:2;stroke-linecap:butt;stroke-linejoin:round;stroke-miterlimit:4;stroke-dasharray:none;stroke-dashoffset:0;stroke-opacity:1;stop-color:#000000"
       d="m 454.48702,294.11713 c -2.0208,0 -3.6485,1.62576 -3.6485,3.64648 v 1.07227 c 0,2.02072 1.6277,3.64844 3.6485,3.64844 h 5.7089 c 0.4787,0 0.9355,-0.0916 1.3536,-0.25782 v -7.85351 c -0.4181,-0.16619 -0.8749,-0.25586 -1.3536,-0.25586 z" />
    <rect
       style="font-variation-settings:normal;opacity:1;vector-effect:none;fill:none;fill-opacity:1;fill-rule:evenodd;stroke:#000000;stroke-width:0.999999;stroke-linecap:butt;stroke-linejoin:miter;stroke-miterlimit:4;stroke-dasharray:none;stroke-dashoffset:0;stroke-opacity:1;-inkscape-stroke:none;stop-color:#000000;stop-opacity:1"
       id="rect45"
       width="2.951611"
       height="11.785037"
       x="292.22797"
       y="248.733"
       rx="1.6070504"
       ry="1.6070504" />
    <path
       style="fill:#ffffff;fill-opacity:1;stroke:#000000;stroke-width:2;stroke-linecap:round;stroke-linejoin:round;stroke-dasharray:none"
       d="m 454.48702,294.11713 v 8.36719"
       id="path47" />
    <path
       style="fill:#ffffff;fill-opacity:1;stroke:#000000;stroke-width:2;stroke-linecap:round;stroke-linejoin:round;stroke-dasharray:none"
       d="m 458.39742,294.11713 v 8.36719"
       id="path48" />
    <path
       id="path3"
       style="opacity:1;fill:#ffffff;stroke:#232328;stroke-width:2;stroke-dasharray:none"
       d="m 643.14662,325.38423 c -3.4965,3.92729 -2.5702,11.29109 2.0771,16.51099 l 2.1571,2.42295 12.6226,14.17797 12.6228,-14.17799 2.1571,-2.42295 c 4.6473,-5.21981 5.5736,-12.58367 2.0771,-16.51097 -3.4964,-3.92728 -10.0525,-2.88683 -14.6997,2.33299 l -2.1573,2.42297 -2.157,-2.42296 c -4.6472,-5.2198 -11.2033,-6.26029 -14.6998,-2.333 z"
       inkscape:export-filename="heart.png"
       inkscape:export-xdpi="96"
       inkscape:export-ydpi="96" />
    <g
       id="g7"
       inkscape:export-filename="saw.png"
       inkscape:export-xdpi="96"
       inkscape:export-ydpi="96">
      <path
         id="path6"
         style="fill:#ffffff;fill-opacity:1;stroke:#000000;stroke-width:2;stroke-dasharray:none"
         inkscape:transform-center-x="-3.3168558"
         inkscape:transform-center-y="-17.500462"
         d="m 451.79721,133.27754 -4.2832,4.35156 -2.4102,-4.09962 -3.0097,5.31251 -3.3906,-3.33595 -1.5313,5.91017 -4.1387,-2.34375 0.051,6.10546 -4.6035,-1.19336 1.627,5.88282 -4.7539,0.0391 3.0937,5.26368 -4.582,1.26757 4.3516,4.28321 -4.0997,2.41015 5.3125,3.00975 -3.3359,3.39063 5.9102,1.53125 -2.3438,4.13867 6.1055,-0.0508 -1.1934,4.60351 5.8828,-1.62694 0.039,4.7539 5.2637,-3.0957 1.2676,4.58398 4.2812,-4.34961 2.4121,4.09766 3.0098,-5.3125 3.3887,3.33595 1.5332,-5.91017 4.1367,2.34375 -0.049,-6.10547 4.6035,1.19337 -1.6269,-5.88282 4.7539,-0.0391 -3.0938,-5.26368 4.582,-1.26758 -4.3515,-4.28124 4.0996,-2.41211 -5.3125,-3.00977 3.3359,-3.38867 -5.9101,-1.5332 2.3437,-4.13672 -6.1054,0.0488 1.1933,-4.60351 -5.8828,1.62695 -0.039,-4.75391 -5.2637,3.09375 z m -0.6601,11.56445 3.5586,0.92187 3.2011,1.8125 2.6231,2.58008 1.8632,3.16992 0.9805,3.54298 0.029,3.67968 -0.9219,3.55859 -1.8125,3.19922 -2.582,2.62695 -3.1641,1.86134 -3.5468,0.98047 -3.6836,0.0293 -3.5528,-0.91992 -3.2031,-1.81446 -2.6211,-2.57812 -1.8652,-3.16797 -0.9805,-3.54492 -0.029,-3.68555 0.9199,-3.55469 1.8164,-3.20312 2.5762,-2.61914 3.168,-1.86524 3.5449,-0.98046 z"
         inkscape:export-filename="saw.png"
         inkscape:export-xdpi="96"
         inkscape:export-ydpi="96" />
      <g
         id="g5"
         transform="translate(-67.873509,0.78616059)">
        <circle
           style="opacity:1;fill:none;stroke:none;stroke-width:2;stroke-dasharray:none"
           id="path5"
           cx="517.28528"
           cy="158.03737"
           r="10.145032" />
        <g
           id="path4"
           style="opacity:1;fill:none;stroke:#000000;stroke-width:2.02204;stroke-dasharray:none"
           transform="matrix(0.49454986,0,0,0.49454986,35.112204,-144.81212)">
          <path
             style="baseline-shift:baseline;display:inline;overflow:visible;fill:none;stroke:#000000;stroke-width:2.02204;stroke-dasharray:none;enable-background:accumulate;stop-color:#000000;stop-opacity:1"
             d="M 990.63555,612.37445 A 15.661551,15.661551 0 0 1 974.974,628.036 15.661551,15.661551 0 0 1 959.31245,612.37445 15.661551,15.661551 0 0 1 974.974,596.7129 a 15.661551,15.661551 0 0 1 15.66155,15.66155 z"
             id="path50" />
          <path
             style="baseline-shift:baseline;display:inline;overflow:visible;fill:none;stroke:#000000;stroke-width:2.02204;stroke-dasharray:none;enable-background:accumulate;stop-color:#000000;stop-opacity:1"
             d="m 974.97461,594.71289 c -9.73052,0 -17.66211,7.93159 -17.66211,17.66211 0,9.73052 7.93159,17.66016 17.66211,17.66016 9.73052,0 17.66016,-7.92964 17.66016,-17.66016 0,-9.73052 -7.92964,-17.66211 -17.66016,-17.66211 z m 0,4 c 7.56876,0 13.66016,6.09335 13.66016,13.66211 0,7.56876 -6.0914,13.66016 -13.66016,13.66016 -7.56876,0 -13.66211,-6.0914 -13.66211,-13.66016 0,-7.56876 6.09335,-13.66211 13.66211,-13.66211 z"
             id="path51" />
        </g>
      </g>
      <circle
         style="opacity:0.359823;fill:none;stroke:none;stroke-width:2;stroke-dasharray:none"
         id="path7"
         cx="449.41177"
         cy="158.84764"
         r="18.449484" />
    </g>
    <g
       id="g23"
       transform="matrix(1.020822,0,0,1,-11.116982,0)"
       style="stroke-width:0.989749"
       inkscape:export-filename="ground.png"
       inkscape:export-xdpi="96"
       inkscape:export-ydpi="96">
      <g
         id="g22"
         inkscape:export-filename="ground.png"
         inkscape:export-xdpi="96"
         inkscape:export-ydpi="96"
         transform="matrix(1.0112399,0,0,1,-39.757861,370.20678)"
         style="stroke-width:0.984233">
        <rect
           style="display:inline;fill:#ffffff;fill-opacity:1;stroke:#19191e;stroke-width:1.96847;stroke-dasharray:none;stroke-opacity:1"
           id="rect21"
           width="1238"
           height="1"
           x="51.065269"
           y="77.941742"
           rx="0"
           ry="0" />
        <rect
           style="display:inline;fill:url(#pattern20);fill-opacity:1;stroke:#19191e;stroke-width:1.96847;stroke-dasharray:none;stroke-opacity:1"
           id="rect20"
           width="1238"
           height="18"
           x="51.065304"
           y="77.941742"
           rx="0"
           ry="0" />
      </g>
    </g>
  </g>
</svg>
