<?xml version="1.0" encoding="UTF-8" standalone="no"?>
<!-- Created with Inkscape (http://www.inkscape.org/) -->

<svg
   width="1920"
   height="1080"
   viewBox="0 0 1920 1080"
   version="1.1"
   id="svg1"
   inkscape:export-filename="player.png"
   inkscape:export-xdpi="96"
   inkscape:export-ydpi="96"
   inkscape:version="1.4.3 (1:1.4.3+202512261035+0d15f75042)"
   sodipodi:docname="original_assets.svg"
   xmlns:inkscape="http://www.inkscape.org/namespaces/inkscape"
   xmlns:sodipodi="http://sodipodi.sourceforge.net/DTD/sodipodi-0.dtd"
   xmlns="http://www.w3.org/2000/svg"
   xmlns:svg="http://www.w3.org/2000/svg">
  <sodipodi:namedview
     id="namedview1"
     pagecolor="#ffffff"
     bordercolor="#000000"
     borderopacity="0.25"
     inkscape:showpageshadow="2"
     inkscape:pageopacity="0.0"
     inkscape:pagecheckerboard="0"
     inkscape:deskcolor="#d1d1d1"
     inkscape:document-units="px"
     showguides="true"
     inkscape:zoom="5.2090199"
     inkscape:cx="1031.96"
     inkscape:cy="551.4473"
     inkscape:window-width="2560"
     inkscape:window-height="1371"
     inkscape:window-x="0"
     inkscape:window-y="32"
     inkscape:window-maximized="1"
     inkscape:current-layer="layer1">
    <sodipodi:guide
       position="777.42599,644.46195"
       orientation="1,0"
       id="guide1"
       inkscape:locked="false" />
    <sodipodi:guide
       position="841.42508,660.5353"
       orientation="0,-1"
       id="guide2"
       inkscape:locked="false" />
    <sodipodi:guide
       position="830.53101,620.34399"
       orientation="0,-1"
       id="guide3"
       inkscape:locked="false" />
    <sodipodi:guide
       position="817.66359,736.92609"
       orientation="1,0"
       id="guide4"
       inkscape:locked="false" />
  </sodipodi:namedview>
  <defs
     id="defs1" />
  <g
     inkscape:label="Layer 1"
     inkscape:groupmode="layer"
     id="layer1">
    <path
       id="path49"
       style="fill:#808080;fill-opacity:1;stroke:none;stroke-width:10"
       inkscape:transform-center-x="-3.3168558"
       inkscape:transform-center-y="-17.500462"
       d="m 962.38574,514.4541 -4.2832,4.35156 -2.41016,-4.09962 -3.00976,5.31251 -3.39063,-3.33595 -1.53125,5.91017 -4.13867,-2.34375 0.0508,6.10546 -4.60351,-1.19336 1.62695,5.88282 -4.7539,0.0391 3.09375,5.26368 -4.58203,1.26757 4.35156,4.28321 -4.09962,2.41015 5.31251,3.00975 -3.33594,3.39063 5.91016,1.53125 -2.34375,4.13867 6.10546,-0.0508 -1.19335,4.60351 5.88281,-1.62694 0.0391,4.7539 5.26367,-3.0957 1.26758,4.58398 4.28125,-4.34961 2.41211,4.09766 3.00976,-5.3125 3.38867,3.33595 1.53321,-5.91017 4.13671,2.34375 -0.0488,-6.10547 4.60352,1.19337 -1.62695,-5.88282 4.7539,-0.0391 -3.09375,-5.26368 4.58202,-1.26758 -4.35155,-4.28124 4.09961,-2.41211 -5.31251,-3.00977 3.33595,-3.38867 -5.91017,-1.5332 2.34376,-4.13672 -6.10547,0.0488 1.19336,-4.60351 -5.88282,1.62695 -0.0391,-4.75391 -5.26367,3.09375 z m -0.66015,11.56445 3.5586,0.92187 3.20116,1.8125 2.62305,2.58008 1.86328,3.16992 0.98047,3.54298 0.0293,3.67968 -0.92188,3.55859 -1.81249,3.19922 -2.58204,2.62695 -3.16406,1.86134 -3.54687,0.98047 -3.6836,0.0293 -3.55273,-0.91992 -3.20313,-1.81446 -2.6211,-2.57812 -1.86523,-3.16797 -0.98047,-3.54492 -0.0293,-3.68555 0.91993,-3.55469 1.8164,-3.20312 2.57618,-2.61914 3.16796,-1.86524 3.54493,-0.98046 z"
       inkscape:export-filename="saw.png"
       inkscape:export-xdpi="96"
       inkscape:export-ydpi="96" />
    <path
       id="path52"
       style="fill:#808080;fill-opacity:1;stroke:none;stroke-width:10"
       inkscape:transform-center-x="-3.3168558"
       inkscape:transform-center-y="-17.500462"
       d="m 977.35977,586.82856 -4.2832,4.35156 -2.41016,-4.09962 -3.00976,5.31251 -3.39063,-3.33595 -1.53125,5.91017 -4.13867,-2.34375 0.0508,6.10546 -4.60351,-1.19336 1.62695,5.88282 -4.7539,0.0391 3.09375,5.26368 -4.58203,1.26757 4.35156,4.28321 -4.09962,2.41015 5.31251,3.00975 -3.33594,3.39063 5.91016,1.53125 -2.34375,4.13867 6.10546,-0.0508 -1.19335,4.60351 5.88281,-1.62694 0.0391,4.7539 5.26367,-3.0957 1.26758,4.58398 4.28125,-4.34961 2.41211,4.09766 3.00976,-5.3125 3.38867,3.33595 1.53321,-5.91017 4.13671,2.34375 -0.0488,-6.10547 4.60352,1.19337 -1.62695,-5.88282 4.7539,-0.0391 -3.09375,-5.26368 4.58202,-1.26758 -4.35155,-4.28124 4.09965,-2.41211 -5.31255,-3.00977 3.33595,-3.38867 -5.91017,-1.5332 2.34376,-4.13672 -6.10547,0.0488 1.19336,-4.60351 -5.88282,1.62695 -0.0391,-4.75391 -5.26367,3.09375 z m -0.66015,11.56445 3.5586,0.92187 3.20116,1.8125 2.62305,2.58008 1.86328,3.16992 0.98047,3.54298 0.0293,3.67968 -0.92188,3.55859 -1.81249,3.19922 -2.58204,2.62695 -3.16406,1.86134 -3.54687,0.98047 -3.6836,0.0293 -3.55273,-0.91992 -3.20313,-1.81446 -2.6211,-2.57812 -1.86523,-3.16797 -0.98047,-3.54492 -0.0293,-3.68555 0.91993,-3.55469 1.8164,-3.20312 2.57618,-2.61914 3.16796,-1.86524 3.54493,-0.98046 z"
       inkscape:export-filename="saw.png"
       inkscape:export-xdpi="96"
       inkscape:export-ydpi="96" />
    <path
       id="path6"
       style="fill:#ffffff;fill-opacity:1;stroke:#000000;stroke-width:2;stroke-dasharray:none"
       inkscape:transform-center-x="-3.3168558"
       inkscape:transform-center-y="-17.500462"
       d="m 1040.2595,600.74367 -4.2832,4.35156 -2.4102,-4.09962 -3.0097,5.31251 -3.3906,-3.33595 -1.5313,5.91017 -4.1387,-2.34375 0.051,6.10546 -4.6035,-1.19336 1.627,5.88282 -4.7539,0.0391 3.0937,5.26368 -4.582,1.26757 4.3516,4.28321 -4.0997,2.41015 5.3125,3.00975 -3.3359,3.39063 5.9102,1.53125 -2.3438,4.13867 6.1055,-0.0508 -1.1934,4.60351 5.8828,-1.62694 0.039,4.7539 5.2637,-3.0957 1.2676,4.58398 4.2812,-4.34961 2.4121,4.09766 3.0098,-5.3125 3.3887,3.33595 1.5332,-5.91017 4.1367,2.34375 -0.049,-6.10547 4.6035,1.19337 -1.6269,-5.88282 4.7539,-0.0391 -3.0938,-5.26368 4.582,-1.26758 -4.3515,-4.28124 4.0996,-2.41211 -5.3125,-3.00977 3.3359,-3.38867 -5.9101,-1.5332 2.3437,-4.13672 -6.1054,0.0488 1.1933,-4.60351 -5.8828,1.62695 -0.039,-4.75391 -5.2637,3.09375 z m -0.6601,11.56445 3.5586,0.92187 3.2011,1.8125 2.6231,2.58008 1.8632,3.16992 0.9805,3.54298 0.029,3.67968 -0.9219,3.55859 -1.8125,3.19922 -2.582,2.62695 -3.1641,1.86134 -3.5468,0.98047 -3.6836,0.0293 -3.5528,-0.91992 -3.2031,-1.81446 -2.6211,-2.57812 -1.8652,-3.16797 -0.9805,-3.54492 -0.029,-3.68555 0.9199,-3.55469 1.8164,-3.20312 2.5762,-2.61914 3.168,-1.86524 3.5449,-0.98046 z"
       inkscape:export-filename="saw.png"
       inkscape:export-xdpi="96"
       inkscape:export-ydpi="96" />
    <circle
       style="fill:#808080;stroke:#333333;stroke-width:4;stroke-dasharray:none"
       id="circle49"
       cx="960"
       cy="540"
       r="15.661551" />
    <g
       id="path4"
       style="opacity:1;fill:#ffffff;stroke:#000000;stroke-width:2.02204;stroke-dasharray:none"
       transform="matrix(0.49454986,0,0,0.49454986,555.70098,323.53616)">
      <path
         style="baseline-shift:baseline;display:inline;overflow:visible;fill:#ffffff;stroke:#000000;stroke-width:2.02204;stroke-dasharray:none;enable-background:accumulate;stop-color:#000000;stop-opacity:1"
         d="M 990.63555,612.37445 A 15.661551,15.661551 0 0 1 974.974,628.036 15.661551,15.661551 0 0 1 959.31245,612.37445 15.661551,15.661551 0 0 1 974.974,596.7129 a 15.661551,15.661551 0 0 1 15.66155,15.66155 z"
         id="path50" />
      <path
         style="baseline-shift:baseline;display:inline;overflow:visible;fill:#ffffff;stroke:#000000;stroke-width:2.02204;stroke-dasharray:none;enable-background:accumulate;stop-color:#000000;stop-opacity:1"
         d="m 974.97461,594.71289 c -9.73052,0 -17.66211,7.93159 -17.66211,17.66211 0,9.73052 7.93159,17.66016 17.66211,17.66016 9.73052,0 17.66016,-7.92964 17.66016,-17.66016 0,-9.73052 -7.92964,-17.66211 -17.66016,-17.66211 z m 0,4 c 7.56876,0 13.66016,6.09335 13.66016,13.66211 0,7.56876 -6.0914,13.66016 -13.66016,13.66016 -7.56876,0 -13.66211,-6.0914 -13.66211,-13.66016 0,-7.56876 6.09335,-13.66211 13.66211,-13.66211 z"
         id="path51" />
    </g>
    <g
       id="g37"
       inkscape:transform-center-y="-49.91342">
      <circle
         style="fill:#ffffff;fill-opacity:1;stroke:#000000;stroke-width:1;stroke-dasharray:none"
         id="path37"
         cx="1081.7773"
         cy="594.59998"
         r="10.927174" />
      <path
         id="rect29"
         style="opacity:1;vector-effect:none;fill:none;fill-rule:evenodd;stroke:#000000;stop-color:#000000;stop-opacity:1"
         d="m 1063.9237,507.58109 h 35.7073 v 59.88175 h -35.3883 z"
         sodipodi:nodetypes="ccccc" />
      <rect
         style="font-variation-settings:normal;opacity:1;vector-effect:none;fill:none;fill-opacity:1;fill-rule:evenodd;stroke:#000000;stroke-width:1;stroke-linecap:butt;stroke-linejoin:miter;stroke-miterlimit:4;stroke-dasharray:none;stroke-dashoffset:0;stroke-opacity:1;-inkscape-stroke:none;stop-color:#000000;stop-opacity:1"
         id="rect30"
         width="25.724609"
         height="22.968365"
         x="1068.915"
         y="484.61273" />
      <rect
         style="font-variation-settings:normal;opacity:1;vector-effect:none;fill:#ffffff;fill-opacity:1;fill-rule:evenodd;stroke:#000000;stroke-width:1;stroke-linecap:butt;stroke-linejoin:miter;stroke-miterlimit:4;stroke-dasharray:none;stroke-dashoffset:0;stroke-opacity:1;-inkscape-stroke:none;stop-color:#000000;stop-opacity:1"
         id="rect31"
         width="9.9827299"
         height="32.635696"
         x="1094.6396"
         y="514.35645" />
      <path
         sodipodi:type="star"
         style="fill:none;fill-opacity:1;stroke:#000000;stroke-width:1;stroke-dasharray:none"
         id="path33"
         inkscape:flatsided="false"
         sodipodi:sides="3"
         sodipodi:cx="1030.9041"
         sodipodi:cy="608.17584"
         sodipodi:r1="21.501165"
         sodipodi:r2="10.750583"
         sodipodi:arg1="1.5707963"
         sodipodi:arg2="2.6179939"
         inkscape:rounded="0"
         inkscape:randomized="0"
         d="m 1030.9041,629.67701 -9.3103,-16.12588 -9.3103,-16.12587 18.6206,0 18.6205,0 -9.3103,16.12587 z"
         inkscape:transform-center-y="5.379994"
         transform="matrix(0.95024882,0,0,1.0008747,102.32148,-30.484987)"
         inkscape:transform-center-x="-3.9033403e-06" />
      <rect
         style="font-variation-settings:normal;opacity:1;vector-effect:none;fill:none;fill-opacity:1;fill-rule:evenodd;stroke:#000000;stroke-width:0.8583;stroke-linecap:butt;stroke-linejoin:miter;stroke-miterlimit:4;stroke-dasharray:none;stroke-dashoffset:0;stroke-opacity:1;-inkscape-stroke:none;stop-color:#000000;stop-opacity:1"
         id="rect34"
         width="13.004004"
         height="8.3679581"
         x="1081.7065"
         y="499.284" />
      <circle
         style="fill:#ffffff;fill-opacity:1;stroke:#000000;stroke-width:1;stroke-dasharray:none"
         id="path34"
         cx="1068.915"
         cy="496.0181"
         r="7.0125651" />
      <circle
         style="fill:#ffffff;fill-opacity:1;stroke:#000000;stroke-width:1.20478;stroke-dasharray:none"
         id="path35"
         cx="1081.9369"
         cy="594.46204"
         r="5.2807927" />
      <circle
         style="fill:#ffffff;fill-opacity:1;stroke:#000000;stroke-width:1;stroke-dasharray:none"
         id="path36"
         cx="1068.915"
         cy="496.09692"
         r="2.9864254" />
    </g>
    <circle
       style="fill:#ffffff;fill-opacity:1;stroke:#000000;stroke-width:2;stroke-linejoin:round;stroke-dasharray:none"
       id="circle37"
       cx="1152.04"
       cy="594.59998"
       r="10.927174"
       inkscape:export-filename="player.png"
       inkscape:export-xdpi="96"
       inkscape:export-ydpi="96" />
    <path
       id="path38"
       style="fill:#ffffff;fill-rule:evenodd;stroke:#000000;stroke-width:2;stroke-linecap:round;stroke-linejoin:round;stroke-dasharray:none;stop-color:#000000"
       d="m 1139.1777,549.81549 25.7246,0 4.9914,17.64735 h -35.3883 z"
       sodipodi:nodetypes="ccccc" />
    <rect
       style="font-variation-settings:normal;fill:#ffffff;fill-opacity:1;fill-rule:evenodd;stroke:#000000;stroke-width:2;stroke-linecap:butt;stroke-linejoin:round;stroke-miterlimit:4;stroke-dasharray:none;stroke-dashoffset:0;stroke-opacity:1;stop-color:#000000"
       id="rect38"
       width="25.724609"
       height="22.968365"
       x="1139.1777"
       y="526.84711" />
    <rect
       style="font-variation-settings:normal;fill:#ffffff;fill-opacity:1;fill-rule:evenodd;stroke:#000000;stroke-width:2;stroke-linecap:butt;stroke-linejoin:round;stroke-miterlimit:4;stroke-dasharray:none;stroke-dashoffset:0;stroke-opacity:1;stop-color:#000000"
       id="rect39"
       width="3.9651053"
       height="14.206126"
       x="522.88202"
       y="-1157.9913"
       transform="rotate(90)"
       ry="2.1727116"
       rx="1.9825526" />
    <path
       sodipodi:type="star"
       style="fill:#ffffff;fill-opacity:1;stroke:#000000;stroke-width:2.05079;stroke-linejoin:round;stroke-dasharray:none"
       id="path39"
       inkscape:flatsided="false"
       sodipodi:sides="3"
       sodipodi:cx="1030.9041"
       sodipodi:cy="608.17584"
       sodipodi:r1="21.501165"
       sodipodi:r2="10.750583"
       sodipodi:arg1="1.5707963"
       sodipodi:arg2="2.6179939"
       inkscape:rounded="0"
       inkscape:randomized="0"
       d="m 1030.9041,629.67701 -9.3103,-16.12588 -9.3103,-16.12587 18.6206,0 18.6205,0 -9.3103,16.12587 z"
       inkscape:transform-center-y="5.379994"
       transform="matrix(0.95024882,0,0,1.0008747,172.58422,-30.484987)"
       inkscape:transform-center-x="-3.9033403e-06" />
    <circle
       style="fill:#ffffff;fill-opacity:1;stroke:#000000;stroke-width:2;stroke-linejoin:round;stroke-dasharray:none"
       id="circle40"
       cx="1139.1777"
       cy="538.25244"
       r="7.0125651" />
    <circle
       style="fill:#ffffff;fill-opacity:1;stroke:#000000;stroke-width:2;stroke-linejoin:round;stroke-dasharray:none"
       id="circle41"
       cx="1152.1996"
       cy="594.46204"
       r="5.2807927" />
    <circle
       style="fill:#ffffff;fill-opacity:1;stroke:#000000;stroke-width:2;stroke-linejoin:round;stroke-dasharray:none"
       id="circle42"
       cx="1139.1777"
       cy="538.3313"
       r="2.9864254" />
    <rect
       style="font-variation-settings:normal;fill:#ffffff;fill-opacity:1;fill-rule:evenodd;stroke:#000000;stroke-width:2;stroke-linecap:butt;stroke-linejoin:miter;stroke-miterlimit:4;stroke-dasharray:none;stroke-dashoffset:0;stroke-opacity:1;stop-color:#000000"
       id="rect43"
       width="21.117216"
       height="9.7907095"
       x="1149.4327"
       y="530.84711"
       ry="4.8953547"
       rx="4.8953547" />
    <circle
       style="fill:#ffffff;fill-opacity:1;stroke:#000000;stroke-width:2;stroke-linecap:round;stroke-linejoin:round;stroke-dasharray:none"
       id="circle43"
       cx="1164.9023"
       cy="536.27948"
       r="2.0518086" />
    <circle
       style="fill:#ffffff;fill-opacity:1;stroke:#000000;stroke-width:2;stroke-linecap:round;stroke-linejoin:round;stroke-dasharray:none"
       id="path43"
       cx="1156.6475"
       cy="535.77948"
       r="2.0518086" />
    <path
       id="rect40"
       style="font-variation-settings:normal;fill:#ffffff;fill-opacity:1;fill-rule:evenodd;stroke:#000000;stroke-width:2;stroke-linecap:butt;stroke-linejoin:round;stroke-miterlimit:4;stroke-dasharray:none;stroke-dashoffset:0;stroke-opacity:1;stop-color:#000000"
       d="m 1157.8398,545.63287 c -2.0208,0 -3.6485,1.62576 -3.6485,3.64648 v 1.07227 c 0,2.02072 1.6277,3.64844 3.6485,3.64844 h 5.7089 c 0.4787,0 0.9355,-0.0916 1.3536,-0.25782 v -7.85351 c -0.4181,-0.16619 -0.8749,-0.25586 -1.3536,-0.25586 z" />
    <rect
       style="font-variation-settings:normal;opacity:1;vector-effect:none;fill:none;fill-opacity:1;fill-rule:evenodd;stroke:#000000;stroke-width:0.999999;stroke-linecap:butt;stroke-linejoin:miter;stroke-miterlimit:4;stroke-dasharray:none;stroke-dashoffset:0;stroke-opacity:1;-inkscape-stroke:none;stop-color:#000000;stop-opacity:1"
       id="rect45"
       width="2.951611"
       height="11.785037"
       x="995.58075"
       y="500.24875"
       rx="0"
       ry="1.6070504" />
    <path
       style="fill:#ffffff;fill-opacity:1;stroke:#000000;stroke-width:2;stroke-linecap:round;stroke-linejoin:round;stroke-dasharray:none"
       d="m 1157.8398,545.63287 v 8.36719"
       id="path47" />
    <path
       style="fill:#ffffff;fill-opacity:1;stroke:#000000;stroke-width:2;stroke-linecap:round;stroke-linejoin:round;stroke-dasharray:none"
       d="m 1161.7502,545.63287 v 8.36719"
       id="path48" />
  </g>
</svg>
